Coordinates
version=1
nRows=32
nColumns=11
inDegrees=yes

Units are S.I. units (second, meters, Newtons, ...)
If the header above contains a line with 'inDegrees', this indicates whether rotational values are in degrees (yes) or radians (no).

endheader
time	pelvis_tilt	pelvis_tx	pelvis_ty	hip_flexion_l	hip_flexion_r	knee_angle_l	knee_angle_r	ankle_angle_l	ankle_angle_r	lumbar
     43.30000000	     17.20891140	     -0.04089507	      0.72637665	     57.28410458	     57.28410458	    -80.65621954	    -80.65621954	      5.96118200	      5.96118200	    -40.89933343
     43.31000000	     17.06059589	     -0.04048489	      0.72646624	     57.39192747	     57.39192747	    -80.63252350	    -80.63252350	      5.96394374	      5.96394374	    -41.19314841
     43.32000000	     16.89737900	     -0.04005726	      0.72655343	     57.51172810	     57.51172810	    -80.60275498	    -80.60275498	      5.96907028	      5.96907028	    -41.48896960
     43.33000000	     16.71698545	     -0.03958585	      0.72662560	     57.64555207	     57.64555207	    -80.56873078	    -80.56873078	      5.97640957	      5.97640957	    -41.78231441
     43.34000000	     16.20727458	     -0.03892318	      0.72591881	     58.18472962	     58.18472962	    -80.57630424	    -80.57630424	      5.98817688	      5.98817688	    -41.68479248
     43.35000000	     16.03607437	     -0.03841736	      0.72604797	     58.30596795	     58.30596795	    -80.55036257	    -80.55036257	      5.99579530	      5.99579530	    -42.02551530
     43.36000000	     15.84746965	     -0.03786690	      0.72618037	     58.43803582	     58.43803582	    -80.51582642	    -80.51582642	      6.00603172	      6.00603172	    -42.36478743
     43.37000000	     15.63942010	     -0.03726081	      0.72631009	     58.58359449	     58.58359449	    -80.47488406	    -80.47488406	      6.01927063	      6.01927063	    -42.69912501
     43.38000000	     15.41439847	     -0.03660794	      0.72643732	     58.74238483	     58.74238483	    -80.43160008	    -80.43160008	      6.03527883	      6.03527883	    -43.03148085
     43.39000000	     14.78889160	     -0.03573165	      0.72560798	     59.39207220	     59.39207220	    -80.43975553	    -80.43975553	      6.12865357	      6.12865357	    -42.88527333
     43.40000000	     14.58333225	     -0.03502015	      0.72581166	     59.52723245	     59.52723245	    -80.40992061	    -80.40992061	      6.13833140	      6.13833140	    -43.27780826
     43.41000000	     14.35758232	     -0.03427069	      0.72601395	     59.67477916	     59.67477916	    -80.36820731	    -80.36820731	      6.15150098	      6.15150098	    -43.66742431
     43.42000000	     14.10478626	     -0.03346621	      0.72619559	     59.84174107	     59.84174107	    -80.31532826	    -80.31532826	      6.16949829	      6.16949829	    -44.04389043
     43.43000000	     13.41100868	     -0.03246840	      0.72531682	     60.54758495	     60.54758495	    -80.30889736	    -80.30889736	      6.27880713	      6.27880713	    -43.89780181
     43.44000000	     13.17388058	     -0.03161116	      0.72554462	     60.70061815	     60.70061815	    -80.27542489	    -80.27542489	      6.28984283	      6.28984283	    -44.33128072
     43.45000000	     12.90137532	     -0.03069870	      0.72575556	     60.87653303	     60.87653303	    -80.22158861	    -80.22158861	      6.30652817	      6.30652817	    -44.74340636
     43.46000000	     12.14851575	     -0.02959430	      0.72482738	     61.63469783	     61.63469783	    -80.20734353	    -80.20734353	      6.40016059	      6.40016059	    -44.58672220
     43.47000000	     11.88816052	     -0.02857754	      0.72510395	     61.79484922	     61.79484922	    -80.17034736	    -80.17034736	      6.41214571	      6.41214571	    -45.04538501
     43.48000000	     11.23635585	     -0.02741532	      0.72453796	     62.39969776	     62.39969776	    -80.12054309	    -80.12054309	      6.49378414	      6.49378414	    -45.05257616
     43.49000000	     10.96311046	     -0.02626512	      0.72485516	     62.56137194	     62.56137194	    -80.08428185	    -80.08428185	      6.50656548	      6.50656548	    -45.52482766
     43.50000000	     10.28616637	     -0.02498040	      0.72431395	     63.17646565	     63.17646565	    -80.02588397	    -80.02588397	      6.60850393	      6.60850393	    -45.53236331
     43.51000000	      9.99247335	     -0.02370132	      0.72466399	     63.34243597	     63.34243597	    -79.98522071	    -79.98522071	      6.62279343	      6.62279343	    -46.01424910
     43.52000000	      9.26605307	     -0.02230670	      0.72406979	     64.00176209	     64.00176209	    -79.92147318	    -79.92147318	      6.73742156	      6.73742156	    -45.98947517
     43.53000000	      8.71797432	     -0.02088958	      0.72390786	     64.44876812	     64.44876812	    -79.86675359	    -79.86675359	      6.79827961	      6.79827961	    -46.19336726
     43.54000000	      8.40051110	     -0.01942818	      0.72430054	     64.62204848	     64.62204848	    -79.82254906	    -79.82254906	      6.81337391	      6.81337391	    -46.69106160
     43.55000000	      7.54066114	     -0.01786132	      0.72349370	     65.41489945	     65.41489945	    -79.75406175	    -79.75406175	      6.92384598	      6.92384598	    -46.54594250
     43.56000000	      6.90270215	     -0.01626752	      0.72323708	     65.94271248	     65.94271248	    -79.69060818	    -79.69060818	      6.97965916	      6.97965916	    -46.68357164
     43.57000000	      6.23996488	     -0.01461060	      0.72296687	     66.49167335	     66.49167335	    -79.62645553	    -79.62645553	      7.03697629	      7.03697629	    -46.80266555
     43.58000000	      5.55985478	     -0.01287554	      0.72270768	     67.05225940	     67.05225940	    -79.56083567	    -79.56083567	      7.09084219	      7.09084219	    -46.91260719
     43.59000000	      4.84673949	     -0.01107249	      0.72242132	     67.64730050	     67.64730050	    -79.49616975	    -79.49616975	      7.15270682	      7.15270682	    -46.99692177
     43.60000000	      4.17712321	     -0.00916203	      0.72235288	     68.15972091	     68.15972091	    -79.40863856	    -79.40863856	      7.21319970	      7.21319970	    -47.13927099
     43.61000000	      3.48256107	     -0.00718168	      0.72227611	     68.69774513	     68.69774513	    -79.32166477	    -79.32166477	      7.27555847	      7.27555847	    -47.26670793
